<?xml version="1.0" encoding="UTF-8"?>
<svg xmlns="http://www.w3.org/2000/svg" width="263" height="596">

<rect stroke="none" fill="#FFFFFF" width="263" height="596" rx="62.25" ry="62.25"/>

<path stroke="none" fill="#de1633" d="
m 166.84,111.24
c 4.20,2.54 6.40,4.54 10.74,7.27 11.32,7.21 25.29,19.95 23.53,63.82 3.23,9.60 4.65,28.39 7.58,34.35 5.89,11.80 9.86,19.44 11.6,30.48 0,0 1.71,17.33 3.94,18.56 11.73,2.69 8.32,3.79 10.03,5.92 1.8,2.29 8.65,2.21 8.65,8.56 2.35,3.13 4.13,6.34 5.46,9.83
l 0,-228.26
c 0,-26.1 -21.11,-47.21 -47.18,-47.21
l -45.01,0
c 7.24,2.57 11.32,5.67 13.74,10.46 5.77,0.49 12.61,13.5 1.89,32.78 4.72,3.23 1.06,8.01 -2.30,13.54 -1.03,1.68 -2.11,4.85 -5.27,4.68 -4.19,8.69 -9.12,16.98 -12.82,17.5 -1.08,1.3 -1.84,5.06 -0.25,6.77 5.52,2.49 12.14,5.81 15.46,8.98 
"/>

<path stroke="none" fill="#de1633" d="
m 208.26,580.92
c 20.64,-12.54 7.82,-36.31 3.91,-50.31
l 0.71,-2.42
c 1.11,-1.95 -1.12,-6.42 -1.12,-6.42 -2.54,-2.18 -3.11,-13.84 -4.48,-19.19 -2.23,-8.81 3.89,-24.03 3.89,-29.21 0,-5.16 -3.89,-12.27 -11.02,-21.38 -1.71,-1.93 -6.93,-46.25 -11.51,-57.49 -6.48,-15.46 -8.35,-12.97 -16.02,-31.41 -5.90,-13 -1.22,-32.15 -14.47,-76.6
l 2.95,-2.74
c 0,0 -10.56,-38.56 -14.03,-49.13 -3.41,-10.55 -9.57,-11.27 -9.57,-11.27
l 0.37,-5.41
c 0.49,-1.71 12.85,-33.87 13.88,-34.89 0.07,-0.71 17.84,-12.85 18.18,-11.05 1.48,7.89 8.35,47.89 11.29,54.28 2.98,6.39 13.28,26.04 18.03,38.23 -18.42,4.46 -32.09,21.08 -32.09,40.9 0,23.22 18.81,42.09 42.05,42.09 17.79,0 33.06,-11.04 39.23,-26.56
l -0.04,213.39
c 0,23.65 -17.01,43.09 -39.69,46.54
"/>

<path stroke="none" fill="#204ba0" d="
m 160.84,548.77 -1.48,-15.46 -11.39,0 -1.68,15.46 -16.27,0 13.06,-70.62 21.61,0 13.23,70.62 -17.08,0 
z m -50.04,0 -23.61,0 0,-70.62 23.06,0
c 11.85,0 17.57,4.53 17.57,16.64 0,7.42 -1.02,13.94 -8.9,16.63
l 0,0.13
c 7.91,1.42 10.73,7.39 10.73,16.27 0,11.85 -4.37,20.95 -18.85,20.95
m -29.14,0 -15.93,0 -11.39,-41.12 -0.34,-2.57 -0.19,0 0,43.68 -14.12,0 0,-70.62 15.93,0 11.26,38.83 0.52,2.85 0.13,0 0,-41.68 14.13,0 0,70.62
z M 195.21,525.24
c -7.51,-6.79 -2.49,-9.57 -2.74,-12.32 -4.96,-20.62 -21.42,-33.15 -12.95,-39.97 -2.09,-6.86 -6.3,-15.34 -6.15,-15.3 -25.54,-14.71 -47.40,-38.54 -51.11,-41.99 -4.43,-4.93 -12.01,-9.83 -13.53,-13.75 -6.11,-5.64 -36.31,-48.39 -43.21,-64.12
l -12.30,-1.71
c -5.47,-22.68 -24.00,-41.75 -24.49,-64.57 -0.21,-8.67 3.92,-27.04 5.37,-30.75 1.46,-3.66 8.62,-9.78 8.62,-9.78
l 0,-6.17
c -26.64,0.78 -18.96,-1.96 -23.61,-12.27 -3.23,-7.2 -0.94,-8.76 0.22,-13.79 3.54,-14.55 15.51,-37.31 20.42,-47.61 1.50,-5.18 6.65,-17.69 6.65,-17.69
C 66.30,92.93 73.63,95.88 97.21,93.67
l 1.27,-1.71
c 23.62,-0.99 19.77,-2.85 23.04,-25.58 -3.45,1.50 -4.41,-7.13 -4.41,-7.13 -1.87,-13.01 3.56,-10.55 6.12,-10.76 0.60,-21.30 2.73,-28.02 18.21,-33.93 
l -79.73,0
c -26.02,0 -47.2,21.11 -47.2,47.2
l 0,472.57
c 0,26 21.17,47.15 47.2,47.15 
l 139.48,0 
c -15.95,-8.65 -6.45,-25.04 -5.98,-56.24
m -41.19,-36.41 -0.22,0 -0.04,1.67 -4.10,31.70 8.13,0 -3.70,-31.70 -0.06,-1.67
z m -39.97,9 
c 0,-4.87 -1.02,-7.64 -4.99,-7.64 
l -5.08,0 0,15.92 4.47,0
c 5.12,0 5.59,-3.84 5.59,-8.28
m -4.91,19.74 -5.15,0 0,19.21 4.78,0
c 5.46,0 6.06,-2.66 6.06,-9.65 0,-4.87 -0.60,-9.56 -5.69,-9.56
"/>
</svg>